<svg xmlns="http://www.w3.org/2000/svg" width="231.261" height="48.45" viewBox="0 0 231.261 48.45">
  <g id="Group_152" data-name="Group 152" transform="translate(-1095.412 -563.075)">
    <path id="Path_129" data-name="Path 129" d="M1245.889,589.517c0-11.765-13.975-30.532-14.57-31.326l-1.1-1.462-1.1,1.462c-.595.793-14.566,19.561-14.566,31.325a15.664,15.664,0,0,0,31.329,0Z" transform="translate(-19.587 6.346)" fill="#3a469a"/>
    <g id="Path_130" data-name="Path 130" transform="translate(-34.715 -3.928)" fill="#6e7ee9" stroke-miterlimit="10">
      <path d="M 1351.17236328125 596.0360107421875 C 1346.166870117188 596.0360107421875 1343.671264648438 594.2130126953125 1341.257690429688 592.4500732421875 C 1339.14208984375 590.9050903320312 1337.143920898438 589.44580078125 1333.125732421875 589.44580078125 C 1329.108276367188 589.44580078125 1327.110717773438 590.9046630859375 1324.995727539062 592.4491577148438 C 1322.580932617188 594.2130126953125 1320.085327148438 596.0360107421875 1315.079833984375 596.0360107421875 C 1310.074462890625 596.0360107421875 1307.578857421875 594.2130126953125 1305.165283203125 592.4500732421875 C 1303.048950195312 590.9046020507812 1301.05126953125 589.44580078125 1297.034057617188 589.44580078125 C 1293.015258789062 589.44580078125 1291.017700195312 590.9050903320312 1288.90283203125 592.4500732421875 C 1286.48779296875 594.2134399414062 1283.991821289062 596.0360107421875 1278.987426757812 596.0360107421875 C 1273.983642578125 596.0360107421875 1271.487548828125 594.2133178710938 1269.07373046875 592.45068359375 L 1269.067993164062 592.4464721679688 L 1269.061645507812 592.441650390625 L 1269.058959960938 592.4395141601562 C 1268.736450195312 592.20166015625 1268.525024414062 591.852783203125 1268.46337890625 591.4562377929688 C 1268.401489257812 591.0573120117188 1268.498413085938 590.6578979492188 1268.736694335938 590.3316040039062 C 1269.019897460938 589.9434204101562 1269.476318359375 589.7116088867188 1269.957641601562 589.7116088867188 C 1270.275634765625 589.7116088867188 1270.579711914062 589.8096313476562 1270.838134765625 589.9953002929688 L 1270.846801757812 590.0010375976562 L 1270.856201171875 590.0079345703125 C 1272.972045898438 591.55322265625 1274.969848632812 593.01220703125 1278.987426757812 593.01220703125 C 1283.00634765625 593.01220703125 1285.00390625 591.5529174804688 1287.11865234375 590.0079345703125 C 1289.533569335938 588.2445678710938 1292.029541015625 586.4219970703125 1297.034057617188 586.4219970703125 C 1302.037353515625 586.4219970703125 1304.533325195312 588.2444458007812 1306.947143554688 590.0068359375 C 1309.063354492188 591.5529174804688 1311.060913085938 593.01220703125 1315.079833984375 593.01220703125 C 1319.098999023438 593.01220703125 1321.096435546875 591.5529174804688 1323.211059570312 590.0079345703125 C 1325.625854492188 588.24462890625 1328.1220703125 586.4219970703125 1333.125732421875 586.4219970703125 C 1338.130004882812 586.4219970703125 1340.625854492188 588.2444458007812 1343.039672851562 590.0068969726562 C 1345.155883789062 591.5529174804688 1347.153442382812 593.01220703125 1351.17236328125 593.01220703125 C 1354.782958984375 593.01220703125 1356.699951171875 591.86572265625 1358.50244140625 590.5884399414062 C 1358.759521484375 590.4061279296875 1359.061645507812 590.3096923828125 1359.376098632812 590.3096923828125 C 1359.856201171875 590.3096923828125 1360.312133789062 590.5409545898438 1360.595703125 590.9282836914062 C 1360.837158203125 591.2592163085938 1360.933715820312 591.6632080078125 1360.867797851562 592.06640625 C 1360.802001953125 592.46875 1360.582641601562 592.820068359375 1360.25 593.0557250976562 C 1358.22021484375 594.4974365234375 1355.676879882812 596.0360107421875 1351.17236328125 596.0360107421875 Z" stroke="none"/>
      <path d="M 1351.17236328125 595.5360107421875 C 1355.447265625 595.5360107421875 1357.841918945312 594.15283203125 1359.9609375 592.647705078125 C 1360.421997070312 592.3211059570312 1360.525634765625 591.6804809570312 1360.192260742188 591.2236328125 C 1359.86572265625 590.7774658203125 1359.242553710938 590.6766967773438 1358.79150390625 590.9963989257812 C 1356.873779296875 592.3553466796875 1354.83740234375 593.51220703125 1351.17236328125 593.51220703125 C 1346.991088867188 593.51220703125 1344.928833007812 592.0062255859375 1342.746215820312 590.4116821289062 C 1340.396606445312 588.6961059570312 1337.9677734375 586.9219970703125 1333.125732421875 586.9219970703125 C 1328.284545898438 586.9219970703125 1325.85546875 588.6961059570312 1323.505981445312 590.4116821289062 C 1321.323486328125 592.0062255859375 1319.26123046875 593.51220703125 1315.079833984375 593.51220703125 C 1310.898559570312 593.51220703125 1308.836303710938 592.0062255859375 1306.653686523438 590.4116821289062 C 1304.304077148438 588.6961059570312 1301.875244140625 586.9219970703125 1297.034057617188 586.9219970703125 C 1292.192016601562 586.9219970703125 1289.763061523438 588.6961059570312 1287.41357421875 590.4116821289062 C 1285.23095703125 592.0062255859375 1283.168701171875 593.51220703125 1278.987426757812 593.51220703125 C 1274.80615234375 593.51220703125 1272.74462890625 592.0062255859375 1270.561279296875 590.4116821289062 L 1270.5537109375 590.4066772460938 C 1270.10302734375 590.076904296875 1269.4697265625 590.1752319335938 1269.140502929688 590.6264038085938 C 1268.810668945312 591.0782470703125 1268.909057617188 591.7113647460938 1269.360229492188 592.0404663085938 L 1269.367797851562 592.0463256835938 C 1271.71728515625 593.761962890625 1274.146240234375 595.5360107421875 1278.987426757812 595.5360107421875 C 1283.829467773438 595.5360107421875 1286.25830078125 593.761962890625 1288.60791015625 592.0463256835938 C 1290.79052734375 590.4518432617188 1292.852783203125 588.94580078125 1297.034057617188 588.94580078125 C 1301.21533203125 588.94580078125 1303.276733398438 590.4518432617188 1305.460205078125 592.0463256835938 C 1307.808959960938 593.761962890625 1310.23779296875 595.5360107421875 1315.079833984375 595.5360107421875 C 1319.921875 595.5360107421875 1322.350830078125 593.761962890625 1324.699584960938 592.0463256835938 C 1326.882934570312 590.4518432617188 1328.9443359375 588.94580078125 1333.125732421875 588.94580078125 C 1337.307006835938 588.94580078125 1339.369262695312 590.4518432617188 1341.552612304688 592.0463256835938 C 1343.9013671875 593.761962890625 1346.330322265625 595.5360107421875 1351.17236328125 595.5360107421875 M 1351.17236328125 596.5360107421875 C 1346.003784179688 596.5360107421875 1343.32568359375 594.5797729492188 1340.962768554688 592.8538208007812 C 1338.826171875 591.29345703125 1336.980712890625 589.94580078125 1333.125732421875 589.94580078125 C 1329.271484375 589.94580078125 1327.4267578125 591.2930297851562 1325.290649414062 592.8529052734375 C 1322.926513671875 594.5797729492188 1320.248413085938 596.5360107421875 1315.079833984375 596.5360107421875 C 1309.911376953125 596.5360107421875 1307.233276367188 594.5797729492188 1304.870361328125 592.8538208007812 C 1302.73291015625 591.29296875 1300.888061523438 589.94580078125 1297.034057617188 589.94580078125 C 1293.178466796875 589.94580078125 1291.333740234375 591.2933959960938 1289.19775390625 592.8538208007812 C 1286.833374023438 594.5802612304688 1284.154907226562 596.5360107421875 1278.987426757812 596.5360107421875 C 1273.820556640625 596.5360107421875 1271.141967773438 594.5801391601562 1268.77880859375 592.8544921875 L 1268.757446289062 592.8384399414062 C 1268.330688476562 592.5218505859375 1268.051025390625 592.0588989257812 1267.969360351562 591.5330200195312 C 1267.886840820312 591.0022583007812 1268.015991210938 590.4708862304688 1268.332763671875 590.0368041992188 C 1268.709838867188 589.5201416015625 1269.317260742188 589.2116088867188 1269.957641601562 589.2116088867188 C 1270.377563476562 589.2116088867188 1270.779296875 589.3400268554688 1271.121337890625 589.5831909179688 L 1271.151123046875 589.6041259765625 C 1273.2880859375 591.1648559570312 1275.132934570312 592.51220703125 1278.987426757812 592.51220703125 C 1282.84326171875 592.51220703125 1284.687866210938 591.1646118164062 1286.823608398438 589.6041870117188 C 1289.18798828125 587.8778076171875 1291.866455078125 585.9219970703125 1297.034057617188 585.9219970703125 C 1302.200561523438 585.9219970703125 1304.87890625 587.8776245117188 1307.242065429688 589.6030883789062 C 1309.37939453125 591.1646118164062 1311.223999023438 592.51220703125 1315.079833984375 592.51220703125 C 1318.935791015625 592.51220703125 1320.7802734375 591.1646118164062 1322.916015625 589.604248046875 C 1325.2802734375 587.8778686523438 1327.958862304688 585.9219970703125 1333.125732421875 585.9219970703125 C 1338.293090820312 585.9219970703125 1340.971435546875 587.8776245117188 1343.334594726562 589.6030883789062 C 1345.471923828125 591.1646118164062 1347.316528320312 592.51220703125 1351.17236328125 592.51220703125 C 1354.635986328125 592.51220703125 1356.479370117188 591.4092407226562 1358.21337890625 590.1804809570312 C 1358.555297851562 589.93798828125 1358.957397460938 589.8096923828125 1359.376098632812 589.8096923828125 C 1360.015014648438 589.8096923828125 1360.621826171875 590.117431640625 1360.999145507812 590.6329345703125 C 1361.320556640625 591.0734252929688 1361.448852539062 591.6107177734375 1361.361206054688 592.1470336914062 C 1361.273681640625 592.6824951171875 1360.981689453125 593.150146484375 1360.538940429688 593.4637451171875 C 1358.44677734375 594.9497680664062 1355.824096679688 596.5360107421875 1351.17236328125 596.5360107421875 Z" stroke="none" fill="#6e7ee9"/>
    </g>
    <g id="Path_131" data-name="Path 131" transform="translate(0 -3.928)" fill="#6e7ee9" stroke-miterlimit="10">
      <path d="M 1178.639404296875 596.0360107421875 C 1173.634155273438 596.0360107421875 1171.138305664062 594.2130126953125 1168.724609375 592.4500732421875 C 1166.609008789062 590.9050903320312 1164.61083984375 589.44580078125 1160.592651367188 589.44580078125 C 1156.5751953125 589.44580078125 1154.577514648438 590.9047241210938 1152.462524414062 592.4492797851562 C 1150.0478515625 594.2130126953125 1147.55224609375 596.0360107421875 1142.546875 596.0360107421875 C 1137.541259765625 596.0360107421875 1135.045776367188 594.2130126953125 1132.63232421875 592.4500732421875 C 1130.515991210938 590.9046020507812 1128.518310546875 589.44580078125 1124.5009765625 589.44580078125 C 1120.482299804688 589.44580078125 1118.484741210938 590.9050903320312 1116.369873046875 592.4500732421875 C 1113.954956054688 594.21337890625 1111.458862304688 596.0360107421875 1106.454467773438 596.0360107421875 C 1101.450805664062 596.0360107421875 1098.954711914062 594.21337890625 1096.540771484375 592.4508056640625 L 1096.535034179688 592.4466552734375 L 1096.528564453125 592.441650390625 L 1096.526000976562 592.4396362304688 C 1096.203491210938 592.2017211914062 1095.992065429688 591.8528442382812 1095.930419921875 591.456298828125 C 1095.868408203125 591.0573120117188 1095.96533203125 590.6578979492188 1096.20361328125 590.3316040039062 C 1096.486938476562 589.943359375 1096.943359375 589.7116088867188 1097.424682617188 589.7116088867188 C 1097.742797851562 589.7116088867188 1098.047119140625 589.8097534179688 1098.3056640625 589.99560546875 L 1098.31396484375 590.0011596679688 L 1098.3232421875 590.0078735351562 C 1100.439208984375 591.5532836914062 1102.436889648438 593.01220703125 1106.454467773438 593.01220703125 C 1110.472778320312 593.01220703125 1112.470581054688 591.55322265625 1114.585571289062 590.008544921875 C 1117.000366210938 588.244873046875 1119.49609375 586.4219970703125 1124.5009765625 586.4219970703125 C 1129.506225585938 586.4219970703125 1132.002075195312 588.2449951171875 1134.415649414062 590.0079345703125 C 1136.5302734375 591.5529174804688 1138.527709960938 593.01220703125 1142.546875 593.01220703125 C 1146.56591796875 593.01220703125 1148.563354492188 591.5529174804688 1150.677978515625 590.0079345703125 C 1153.093139648438 588.2445068359375 1155.589233398438 586.4219970703125 1160.592651367188 586.4219970703125 C 1165.596923828125 586.4219970703125 1168.093139648438 588.2445678710938 1170.507080078125 590.0071411132812 C 1172.622802734375 591.5529174804688 1174.620239257812 593.01220703125 1178.639404296875 593.01220703125 C 1182.250122070312 593.01220703125 1184.1669921875 591.86572265625 1185.969482421875 590.5884399414062 C 1186.226684570312 590.4061279296875 1186.52880859375 590.3096923828125 1186.843139648438 590.3096923828125 C 1187.3232421875 590.3096923828125 1187.779174804688 590.5409545898438 1188.062744140625 590.9282836914062 C 1188.304321289062 591.25927734375 1188.400756835938 591.6632080078125 1188.334838867188 592.06640625 C 1188.26904296875 592.46875 1188.049560546875 592.820068359375 1187.717041015625 593.0557250976562 C 1185.687133789062 594.4974365234375 1183.143676757812 596.0360107421875 1178.639404296875 596.0360107421875 Z" stroke="none"/>
      <path d="M 1178.639404296875 595.5360107421875 C 1182.914184570312 595.5360107421875 1185.308837890625 594.15283203125 1187.427978515625 592.647705078125 C 1187.889038085938 592.3211059570312 1187.99267578125 591.6804809570312 1187.659301757812 591.2236328125 C 1187.332885742188 590.7776489257812 1186.7099609375 590.676513671875 1186.258544921875 590.9963989257812 C 1184.3408203125 592.3553466796875 1182.304443359375 593.51220703125 1178.639404296875 593.51220703125 C 1174.4580078125 593.51220703125 1172.395751953125 592.0062255859375 1170.213256835938 590.4116821289062 C 1167.863647460938 588.6961059570312 1165.4345703125 586.9219970703125 1160.592651367188 586.9219970703125 C 1155.75146484375 586.9219970703125 1153.322509765625 588.6961059570312 1150.972900390625 590.4116821289062 C 1148.790405273438 592.0062255859375 1146.728149414062 593.51220703125 1142.546875 593.51220703125 C 1138.365478515625 593.51220703125 1136.30322265625 592.0062255859375 1134.120727539062 590.4116821289062 C 1131.77197265625 588.6961059570312 1129.34228515625 586.9219970703125 1124.5009765625 586.9219970703125 C 1119.659057617188 586.9219970703125 1117.230224609375 588.6961059570312 1114.88134765625 590.4116821289062 C 1112.697998046875 592.0062255859375 1110.636474609375 593.51220703125 1106.454467773438 593.51220703125 C 1102.273071289062 593.51220703125 1100.211669921875 592.0062255859375 1098.0283203125 590.4116821289062 L 1098.020751953125 590.4066772460938 C 1097.5693359375 590.07666015625 1096.936645507812 590.1753540039062 1096.607421875 590.6264038085938 C 1096.277587890625 591.0782470703125 1096.376220703125 591.7113647460938 1096.8271484375 592.0404663085938 L 1096.834716796875 592.0463256835938 C 1099.184326171875 593.761962890625 1101.61328125 595.5360107421875 1106.454467773438 595.5360107421875 C 1111.29638671875 595.5360107421875 1113.725341796875 593.761962890625 1116.074951171875 592.0463256835938 C 1118.257568359375 590.4518432617188 1120.31982421875 588.94580078125 1124.5009765625 588.94580078125 C 1128.682373046875 588.94580078125 1130.743774414062 590.4518432617188 1132.92724609375 592.0463256835938 C 1135.27587890625 593.761962890625 1137.704833984375 595.5360107421875 1142.546875 595.5360107421875 C 1147.388916015625 595.5360107421875 1149.817749023438 593.761962890625 1152.16650390625 592.0463256835938 C 1154.349853515625 590.4518432617188 1156.411376953125 588.94580078125 1160.592651367188 588.94580078125 C 1164.77392578125 588.94580078125 1166.836181640625 590.4518432617188 1169.01953125 592.0463256835938 C 1171.368408203125 593.761962890625 1173.79736328125 595.5360107421875 1178.639404296875 595.5360107421875 M 1178.639404296875 596.5360107421875 C 1173.470947265625 596.5360107421875 1170.792724609375 594.5797729492188 1168.4296875 592.8538818359375 C 1166.293090820312 591.29345703125 1164.447631835938 589.94580078125 1160.592651367188 589.94580078125 C 1156.738403320312 589.94580078125 1154.8935546875 591.2930908203125 1152.757446289062 592.8530883789062 C 1150.393432617188 594.5797729492188 1147.71533203125 596.5360107421875 1142.546875 596.5360107421875 C 1137.378173828125 596.5360107421875 1134.700073242188 594.5797729492188 1132.33740234375 592.8538208007812 C 1130.199951171875 591.29296875 1128.355102539062 589.94580078125 1124.5009765625 589.94580078125 C 1120.6455078125 589.94580078125 1118.80078125 591.2933959960938 1116.664794921875 592.8538208007812 C 1114.300537109375 594.5802001953125 1111.621948242188 596.5360107421875 1106.454467773438 596.5360107421875 C 1101.287719726562 596.5360107421875 1098.609130859375 594.5802001953125 1096.245971679688 592.8546752929688 L 1096.224365234375 592.8384399414062 C 1095.797729492188 592.5218505859375 1095.518188476562 592.0588989257812 1095.436401367188 591.5331420898438 C 1095.353759765625 591.0023193359375 1095.48291015625 590.4708862304688 1095.799682617188 590.0368041992188 C 1096.176879882812 589.5200805664062 1096.784301757812 589.2116088867188 1097.424682617188 589.2116088867188 C 1097.8447265625 589.2116088867188 1098.246704101562 589.340087890625 1098.5888671875 589.58349609375 L 1098.6181640625 589.6041259765625 C 1100.755249023438 591.1649169921875 1102.599975585938 592.51220703125 1106.454467773438 592.51220703125 C 1110.309692382812 592.51220703125 1112.154541015625 591.1648559570312 1114.290771484375 589.6046752929688 C 1116.65478515625 587.8781127929688 1119.332885742188 585.9219970703125 1124.5009765625 585.9219970703125 C 1129.66943359375 585.9219970703125 1132.34765625 587.8782348632812 1134.710571289062 589.6041259765625 C 1136.846435546875 591.1646118164062 1138.690795898438 592.51220703125 1142.546875 592.51220703125 C 1146.402709960938 592.51220703125 1148.247192382812 591.1646118164062 1150.382934570312 589.604248046875 C 1152.74755859375 587.877685546875 1155.426025390625 585.9219970703125 1160.592651367188 585.9219970703125 C 1165.760131835938 585.9219970703125 1168.438720703125 587.8777465820312 1170.801879882812 589.6033325195312 C 1172.93896484375 591.1646118164062 1174.783447265625 592.51220703125 1178.639404296875 592.51220703125 C 1182.10302734375 592.51220703125 1183.9462890625 591.4092407226562 1185.680419921875 590.1804809570312 C 1186.0224609375 589.93798828125 1186.424560546875 589.8096923828125 1186.843139648438 589.8096923828125 C 1187.482055664062 589.8096923828125 1188.088745117188 590.117431640625 1188.466186523438 590.6329345703125 C 1188.787719726562 591.073486328125 1188.915893554688 591.6107788085938 1188.828247070312 592.1470336914062 C 1188.74072265625 592.6825561523438 1188.44873046875 593.150146484375 1188.005981445312 593.4637451171875 C 1185.913696289062 594.9497680664062 1183.290893554688 596.5360107421875 1178.639404296875 596.5360107421875 Z" stroke="none" fill="#6e7ee9"/>
    </g>
  </g>
</svg>
